<?xml version="1.0" encoding="UTF-8" standalone="no"?>
<!-- Created with Inkscape (http://www.inkscape.org/) -->

<svg
   width="105.34705mm"
   height="26.912218mm"
   viewBox="0 0 105.34705 26.912218"
   version="1.1"
   id="svg5"
   inkscape:version="1.1.2 (0a00cf5339, 2022-02-04)"
   sodipodi:docname="inmobitas-logotype.svg"
   xmlns:inkscape="http://www.inkscape.org/namespaces/inkscape"
   xmlns:sodipodi="http://sodipodi.sourceforge.net/DTD/sodipodi-0.dtd"
   xmlns="http://www.w3.org/2000/svg"
   xmlns:svg="http://www.w3.org/2000/svg">
  <sodipodi:namedview
     id="namedview7"
     pagecolor="#ffffff"
     bordercolor="#999999"
     borderopacity="1"
     inkscape:pageshadow="0"
     inkscape:pageopacity="0"
     inkscape:pagecheckerboard="0"
     inkscape:document-units="mm"
     showgrid="false"
     inkscape:zoom="0.81134749"
     inkscape:cx="438.77624"
     inkscape:cy="-35.743008"
     inkscape:current-layer="layer1"
     fit-margin-top="0"
     fit-margin-left="0"
     fit-margin-right="0"
     fit-margin-bottom="0" />
  <defs
     id="defs2" />
  <g
     inkscape:label="Layer 1"
     inkscape:groupmode="layer"
     id="layer1"
     transform="translate(-77.914107,-110.81391)">
    <path
       style="display:inline;fill:#5da4f5;fill-opacity:0.992157;stroke:none;stroke-width:0.264583px;stroke-linecap:butt;stroke-linejoin:miter;stroke-opacity:1"
       d="m 89.55933,111.86294 0.13229,24.73854 -11.1125,-5.95312 v -12.96459 z"
       id="path7817"
       inkscape:connector-curvature="0" />
    <path
       inkscape:connector-curvature="0"
       id="path7819"
       d="m 89.9562,136.60148 -0.13229,-24.73854 11.1125,5.95312 v 12.96459 z"
       style="display:inline;fill:#fb915b;fill-opacity:1;stroke:none;stroke-width:0.264583px;stroke-linecap:butt;stroke-linejoin:miter;stroke-opacity:1" />
    <path
       id="path7779"
       style="color:#000000;font-style:normal;font-variant:normal;font-weight:normal;font-stretch:normal;font-size:medium;line-height:normal;font-family:sans-serif;font-variant-ligatures:normal;font-variant-position:normal;font-variant-caps:normal;font-variant-numeric:normal;font-variant-alternates:normal;font-feature-settings:normal;text-indent:0;text-align:start;text-decoration:none;text-decoration-line:none;text-decoration-style:solid;text-decoration-color:#000000;letter-spacing:normal;word-spacing:normal;text-transform:none;writing-mode:lr-tb;direction:ltr;text-orientation:mixed;dominant-baseline:auto;baseline-shift:baseline;text-anchor:start;white-space:normal;shape-padding:0;clip-rule:nonzero;display:inline;overflow:visible;visibility:visible;isolation:auto;mix-blend-mode:normal;color-interpolation:sRGB;color-interpolation-filters:linearRGB;solid-color:#000000;solid-opacity:1;vector-effect:none;fill:#3a3e58;fill-opacity:1;fill-rule:nonzero;stroke:none;stroke-width:6.36934;stroke-linecap:butt;stroke-linejoin:miter;stroke-miterlimit:4;stroke-dasharray:none;stroke-dashoffset:0;stroke-opacity:1;color-rendering:auto;image-rendering:auto;shape-rendering:auto;text-rendering:auto;enable-background:accumulate"
       d="m 339.27148,418.82422 c -0.96292,0 -1.9252,0.2476 -2.78515,0.74414 l -39.21289,22.63867 c -1.71995,0.993 -2.79496,2.84597 -2.79492,4.83203 v 45.28711 c 0,1.98599 1.07497,3.82923 2.79492,4.82227 l 39.21289,22.64648 c 1.71991,0.99303 3.85235,0.99303 5.57226,0 l 39.22071,-22.64648 c 1.71995,-0.99304 2.78519,-2.8362 2.78515,-4.82227 v -45.28711 c 0,-1.98606 -1.0652,-3.83903 -2.78515,-4.83203 l -39.22071,-22.63867 c -0.85995,-0.49654 -1.82419,-0.74414 -2.78711,-0.74414 z m -3.18164,8.33008 v 16.66601 68.39063 l -14.43164,-8.33203 v -68.39258 z m 6.37305,0.004 11.24414,6.49219 -11.24414,6.49023 z m 17.61523,10.16797 14.43555,8.33399 -32.05078,18.5 v -16.66211 z m -44.79492,1.83985 v 61.0332 l -14.42968,-8.33203 v -44.36914 z m 62.41602,12.00781 v 40.69336 l -7.50195,4.33008 v -21.31641 c 0,-0.90376 -0.73386,-1.55235 -1.54102,-1.56641 -0.2691,-0.004 -0.54574,0.0601 -0.80664,0.21094 l -16.69922,9.64453 c -0.73886,0.42648 -1.19336,1.21513 -1.19336,2.06836 v 22.64258 l -7.49414,4.32617 v -40.69141 z m -14.38672,32.49805 c 0.23017,0.004 0.44023,0.19236 0.44141,0.44921 l 0.0684,15.75586 -7.49415,4.32617 v -15.97851 c 0,-0.42648 0.2281,-0.81993 0.59766,-1.0332 l 6.15625,-3.46094 c 0.0748,-0.045 0.15375,-0.0605 0.23047,-0.0586 z"
       transform="scale(0.26458333)" />
    <path
       id="path90"
       style="font-size:11.1559px;line-height:1.25;font-family:Governor;-inkscape-font-specification:Governor;text-align:center;letter-spacing:1.91696px;word-spacing:0px;text-anchor:middle;fill:#3a3e58;stroke-width:0.194711"
       d="m 138.30732,120.05107 c -1.14392,0 -2.05871,0.38304 -2.74505,1.14928 -0.68272,0.76262 -1.02423,1.78714 -1.02423,3.07268 0,1.28555 0.34151,2.30956 1.02423,3.07217 0.68634,0.76261 1.60113,1.1436 2.74505,1.1436 1.14028,0 2.052,-0.38099 2.73472,-1.1436 0.68271,-0.76624 1.02422,-1.79025 1.02422,-3.07217 0,-1.28554 -0.34151,-2.31006 -1.02422,-3.07268 -0.68272,-0.76624 -1.59444,-1.14928 -2.73472,-1.14928 z m 42.08322,0 c -0.88972,0 -1.58863,0.20716 -2.09703,0.62115 -0.50478,0.41399 -0.75758,0.9806 -0.75758,1.69964 0,0.62098 0.18358,1.10555 0.55035,1.45417 0.36679,0.34862 0.96058,0.60449 1.78129,0.76791 l 0.66973,0.13074 c 0.55924,0.11258 0.96075,0.2818 1.20406,0.50695 0.24695,0.22515 0.37052,0.53743 0.37052,0.93689 0,0.45757 -0.17075,0.80985 -0.51211,1.05679 -0.34136,0.24694 -0.82593,0.37052 -1.45418,0.37052 -0.41399,0 -0.83549,-0.0636 -1.264,-0.19069 -0.42852,-0.1271 -0.86592,-0.31632 -1.31259,-0.56689 v 1.13327 c 0.46483,0.17067 0.913,0.29938 1.34514,0.38653 0.43578,0.0872 0.84652,0.13075 1.23145,0.13075 1.02045,0 1.79371,-0.20306 2.32027,-0.60978 0.5302,-0.40673 0.7953,-1.00411 0.7953,-1.79214 0,-0.66093 -0.19587,-1.18755 -0.58807,-1.57975 -0.38857,-0.39583 -0.99365,-0.6717 -1.81436,-0.82786 l -0.66456,-0.13643 c -0.60283,-0.11257 -1.01304,-0.25974 -1.23094,-0.44131 -0.21425,-0.18521 -0.32142,-0.45749 -0.32142,-0.81701 0,-0.42851 0.16152,-0.75873 0.48472,-0.99115 0.32684,-0.23241 0.78987,-0.34882 1.38906,-0.34882 0.345,0 0.70292,0.0492 1.07332,0.14728 0.37042,0.0981 0.76422,0.24675 1.18184,0.44649 V 120.465 c -0.41398,-0.138 -0.81856,-0.24107 -1.21439,-0.31006 -0.39584,-0.069 -0.78452,-0.10387 -1.16582,-0.10387 z m -72.39558,0.14728 v 8.13283 h 1.10071 v -8.13283 z m 5.20743,0 v 8.13283 h 1.06764 v -6.80371 l 3.60598,6.80371 h 1.48156 v -8.13283 h -1.06763 v 6.80371 l -3.60599,-6.80371 z m 10.26191,0 v 8.13283 h 1.06763 v -7.14168 l 2.09703,5.57795 h 1.10588 l 2.09754,-5.57795 v 7.14168 h 1.07281 v -8.13283 h -1.6397 l -2.08618,5.53454 -2.07532,-5.53454 z m 22.23998,0 v 8.13283 h 2.91972 c 0.9115,0 1.61452,-0.19793 2.1084,-0.59376 0.49388,-0.39583 0.74052,-0.95732 0.74052,-1.68362 0,-0.55198 -0.15075,-1.01092 -0.45217,-1.37769 -0.29778,-0.37041 -0.71722,-0.61398 -1.25832,-0.73019 0.45031,-0.0726 0.79182,-0.25621 1.02423,-0.55035 0.23241,-0.29416 0.34881,-0.6895 0.34881,-1.18701 0,-0.64277 -0.22716,-1.13863 -0.68109,-1.48725 -0.45393,-0.34862 -1.10054,-0.52296 -1.93942,-0.52296 z m 9.57048,0 v 8.13283 h 1.10019 v -8.13283 z m 4.07933,0 v 0.92604 h 2.88717 v 7.20679 h 1.10587 v -7.20679 h 2.88717 v -0.92604 z m 11.09028,0 -3.10523,8.13283 h 1.16065 l 0.74052,-2.08669 h 3.66593 l 0.74104,2.08669 h 1.14412 l -3.09956,-8.13283 z m -32.13705,0.7462 c 0.79892,0 1.43118,0.29792 1.89601,0.89349 0.46846,0.59556 0.7028,1.40729 0.7028,2.43499 0,1.02408 -0.23434,1.83375 -0.7028,2.42931 -0.46483,0.59556 -1.09709,0.89349 -1.89601,0.89349 -0.79893,0 -1.43425,-0.29793 -1.90635,-0.89349 -0.46846,-0.59556 -0.70279,-1.40523 -0.70279,-2.42931 0,-1.0277 0.23433,-1.83943 0.70279,-2.43499 0.4721,-0.59557 1.10742,-0.89349 1.90635,-0.89349 z m 8.49767,0.15813 h 1.62832 c 0.53747,0 0.93692,0.10153 1.19838,0.30489 0.2651,0.20337 0.39791,0.51001 0.39791,0.92036 0,0.414 -0.13281,0.72268 -0.39791,0.92604 -0.26146,0.19974 -0.66091,0.29973 -1.19838,0.29973 h -1.62832 z m 24.26054,0.17984 1.49758,4.0473 h -2.99052 z m -24.26054,3.16466 h 1.76475 c 0.59194,0 1.02933,0.12153 1.31258,0.36484 0.28689,0.23967 0.43047,0.614 0.43047,1.12241 0,0.50478 -0.14358,0.88064 -0.43047,1.12758 -0.28325,0.24331 -0.72064,0.36484 -1.31258,0.36484 h -1.76475 z" />
  </g>
</svg>
